Coordinates
version=1
nRows=12
nColumns=24
inDegrees=yes

Units are S.I. units (second, meters, Newtons, ...)
Angles are in degrees.

endheader
time	pelvis_tilt	pelvis_list	pelvis_rotation	pelvis_tx	pelvis_ty	pelvis_tz	hip_flexion_r	hip_adduction_r	hip_rotation_r	knee_angle_r	ankle_angle_r	subtalar_angle_r	mtp_angle_r	hip_flexion_l	hip_adduction_l	hip_rotation_l	knee_angle_l	ankle_angle_l	subtalar_angle_l	mtp_angle_l	lumbar_extension	lumbar_bending	lumbar_rotation
      4.49500000	    -10.19558068	      1.35940660	     -1.05102048	     -1.90014212	     -0.01178205	      0.42237058	     35.78676999	     -1.19672128	     -5.44099102	    -46.17634973	    -15.01428873	    -18.00959429	      8.03378412	      4.56307112	      5.04299326	      8.64226223	     -8.32735947	      3.67562508	      1.65873179	      5.55548521	      8.21256481	     -0.94812225	     -5.86334393
      4.50000000	    -10.29801604	      1.19111944	     -0.69433891	     -1.89462264	     -0.01216473	      0.42231698	     36.01601765	     -1.08360742	     -5.64810645	    -44.36730449	    -14.46537065	    -17.16543126	      8.41210245	      4.20918889	      4.86940731	      8.83095363	     -8.17309450	      3.86026002	      1.81135281	      5.60533760	      8.21182856	     -0.93321252	     -6.16972820
      4.50500000	    -10.40209720	      1.02227414	     -0.34532457	     -1.88911063	     -0.01256052	      0.42230293	     36.20217733	     -0.96597075	     -5.81828821	    -42.47511618	    -13.89121470	    -16.19281415	      8.86784298	      3.87260087	      4.69013754	      8.98369672	     -8.04136579	      4.04471390	      1.98106875	      5.67241191	      8.20629024	     -0.91930200	     -6.45044291
      4.51000000	    -10.48228540	      0.86709259	      0.01196851	     -1.88364951	     -0.01294297	      0.42229724	     36.31895609	     -0.86467824	     -5.93002751	    -40.50797104	    -13.26791163	    -15.05330626	      9.40262263	      3.54016213	      4.52574371	      9.10347058	     -7.95542892	      4.23208132	      2.17786004	      5.75392332	      8.16114295	     -0.92118049	     -6.76672111
      4.51500000	    -10.59175797	      0.69559698	      0.33800952	     -1.87806846	     -0.01337514	      0.42233719	     36.41983802	     -0.74350106	     -6.05071853	    -38.47534049	    -12.65652836	    -13.83847667	      9.93652199	      3.22434540	      4.33467097	      9.19533068	     -7.85129587	      4.42057338	      2.38474641	      5.84225474	      8.16520277	     -0.89793351	     -6.95225066
      4.52000000	    -10.65895210	      0.55799306	      0.69095412	     -1.87257953	     -0.01378606	      0.42237570	     36.43645612	     -0.66388541	     -6.08582119	    -36.39513464	    -12.00468968	    -12.48107468	     10.49086223	      2.90743317	      4.18326745	      9.26216678	     -7.81802785	      4.61679072	      2.62030935	      5.94501236	      8.09782335	     -0.91597786	     -7.20992415
      4.52500000	    -10.73261679	      0.42015463	      1.02915399	     -1.86699704	     -0.01422363	      0.42243651	     36.41706142	     -0.58832843	     -6.11838365	    -34.27599894	    -11.37566201	    -11.06392998	     10.99822085	      2.59120531	      4.02587458	      9.30707793	     -7.78088158	      4.80915537	      2.87071597	      6.04871690	      8.04889372	     -0.92786368	     -7.39692446
      4.53000000	    -10.79318633	      0.29433326	      1.36992490	     -1.86137947	     -0.01466891	      0.42250141	     36.34579773	     -0.53495348	     -6.13236832	    -32.13461051	    -10.77374055	     -9.59830760	     11.44835693	      2.27250368	      3.87870760	      9.33983681	     -7.76823914	      4.99867704	      3.13935520	      6.16051956	      7.98578189	     -0.94918655	     -7.56685941
      4.53500000	    -10.83919717	      0.17887322	      1.71607684	     -1.85570802	     -0.01512534	      0.42255811	     36.22381470	     -0.50757281	     -6.15025956	    -29.98664041	    -10.20986006	     -8.11890120	     11.83024241	      1.94609112	      3.74019761	      9.36103612	     -7.77440090	      5.18609148	      3.42192371	      6.28269489	      7.91280012	     -0.97778219	     -7.71825503
      4.54000000	    -10.86465041	      0.08035850	      2.07206377	     -1.84999776	     -0.01557702	      0.42261251	     36.04813729	     -0.51266509	     -6.17606135	    -27.84642962	     -9.69916526	     -6.66748041	     12.11729871	      1.60985526	      3.61557520	      9.38529480	     -7.80821948	      5.36468163	      3.72502181	      6.41489779	      7.81443755	     -1.01980604	     -7.86478738
      4.54500000	    -10.87557128	     -0.01314786	      2.43192042	     -1.84422982	     -0.01603804	      0.42266272	     35.82910329	     -0.53892760	     -6.24045141	    -25.72695206	     -9.24795962	     -5.26611890	     12.32230534	      1.26642531	      3.49158025	      9.41074303	     -7.86320641	      5.54001412	      4.03755866	      6.56106964	      7.70866075	     -1.06324203	     -7.99625789
      4.55000000	    -10.86844409	     -0.09818396	      2.79963794	     -1.83840127	     -0.01650106	      0.42269602	     35.56709885	     -0.59119185	     -6.36007406	    -23.64422934	     -8.85304010	     -3.94125246	     12.44176991	      0.91367148	      3.37181436	      9.44624174	     -7.94411871	      5.71016333	      4.36378728	      6.72275874	      7.58995007	     -1.10842413	     -8.11758779
